<svg id="Logo" xmlns="http://www.w3.org/2000/svg" width="837" height="319" viewBox="0 0 837 319">
  <defs>
    <style>
      .cls-1 {
        fill: #fff;
        fill-rule: evenodd;
      }
    </style>
  </defs>
  <path id="ekstra" class="cls-1" d="M84.7,206.349q-13.538,0-23.046-5.221A25.941,25.941,0,0,1,48.92,186.1a45.034,45.034,0,0,1-2.256-9.81,1.693,1.693,0,0,1,1.934-1.9h98.954q5.478,0,5.48-5.38-0.65-12.652-1.934-23.1-5.484-33.226-24.013-51.58T76.963,75.976q-26.758,0-46.254,14.24A67.507,67.507,0,0,0,4.761,127.872q-3.551,12.66-3.546,31.011a109.46,109.46,0,0,0,3.868,29.429q6.769,25.95,26.27,40.821t49.155,14.872a87.756,87.756,0,0,0,36.262-7.436,73.249,73.249,0,0,0,27.237-20.41,5.834,5.834,0,0,0,1.289-3.8,5.435,5.435,0,0,0-1.934-3.8l-18.373-17.4a4.981,4.981,0,0,0-3.545-1.582,5.564,5.564,0,0,0-4.19,2.215Q105.967,205.4,84.7,206.349h0Zm-8.381-91.767q10.954,0,18.05,5.379a28.545,28.545,0,0,1,9.992,14.556,22.7,22.7,0,0,1,1.29,7.278c0,0.846-.539,1.266-1.612,1.266h-54.8a1.42,1.42,0,0,1-1.612-1.9q0.317-1.9,1.934-7.911a24.73,24.73,0,0,1,9.509-13.765q6.928-4.9,17.245-4.9h0ZM173.66,241.474h34.489q5.477,0,5.48-5.38v-44.3a3.869,3.869,0,0,1,.967-2.215l19.984-25q1.609-1.579,2.579.316l31.265,72.465a6.626,6.626,0,0,0,6.447,4.114h36.423q4.835,0,4.835-3.8l-0.645-2.532L268.1,136.732a2.135,2.135,0,0,1,.322-2.531l39.647-48.732a5.4,5.4,0,0,0,1.289-3.481,2.613,2.613,0,0,0-1.289-2.373,6.81,6.81,0,0,0-3.546-.791h-39a9.628,9.628,0,0,0-6.768,3.164L215.885,130.4a1.419,1.419,0,0,1-1.45.791,1.2,1.2,0,0,1-.806-1.424V25.346q0-5.377-5.48-5.379H173.66q-5.484,0-5.48,5.379V236.094q0,5.385,5.48,5.38h0Zm219.5,2.215q31.911,0,50.928-13.132t19.017-36.549q0-19.936-13.215-30.378t-36.423-17.088a161.17,161.17,0,0,0-18.051-4.747q-15.154-3.478-21.757-6.645t-6.608-9.493q0-6.645,6.931-10.443t17.566-3.8q11.922,0,19.018,4.747t7.091,11.708v1.9q0,1.9,5.48,1.9h31.588a6.49,6.49,0,0,0,4.029-1.107,3.285,3.285,0,0,0,1.45-2.69,43.994,43.994,0,0,0-8.541-26.581q-8.546-11.7-24.175-18.2t-36.262-6.487q-30.3,0-48.994,13.765t-18.695,37.182q0,18.985,12.249,29.112t33.2,17.088a199.546,199.546,0,0,0,23.53,7.278q13.214,3.167,19.018,6.012t5.8,8.544q0,6.645-6.769,10.759t-17.728,4.114q-11.929,0-19.662-4.905t-7.736-11.867v-2.215q0-1.9-5.48-1.9H327.407q-5.484,0-5.479,5.379v1.582a37.7,37.7,0,0,0,8.7,24.366q8.7,10.763,24.82,16.772t37.712,6.012h0ZM571.406,109.2v-25q0-5.377-5.479-5.379h-29.01a1.694,1.694,0,0,1-1.934-1.9V41.168q0-5.377-5.479-5.379H496.626q-5.484,0-5.479,5.38V76.925a1.694,1.694,0,0,1-1.934,1.9H472.774q-5.484,0-5.479,5.379v25q0,5.385,5.479,5.38h16.439a1.694,1.694,0,0,1,1.934,1.9v82.907q0.317,24.053,13.538,32.91t39.968,8.86q5.478,0,17.728-.632,5.478-.631,5.48-5.7V207.615q0-5.377-5.48-5.38h-9.025q-9.669,0-14.021-4.905t-4.352-15.347v-65.5a1.694,1.694,0,0,1,1.934-1.9h29.01q5.476,0,5.479-5.38h0Zm97.018-32.593q-21.924,0-34.812,18.353c-0.644.633-1.183,0.845-1.611,0.633a1.591,1.591,0,0,1-.645-1.582V84.2q0-5.377-5.479-5.379h-34.49q-5.484,0-5.479,5.379V236.094q0,5.385,5.479,5.38h34.49q5.477,0,5.479-5.38v-84.8q0-12.342,8.058-19.778a31.974,31.974,0,0,1,19.662-8.386,69.707,69.707,0,0,1,7.414-.632,39.79,39.79,0,0,1,9.347,1.265q3.219,0.638,4.674,0t1.773-3.481l6.124-33.226q0.967-4.747-2.9-6.645-6.768-3.8-17.083-3.8h0Zm94.441-.317a98.153,98.153,0,0,0-34.651,5.854q-15.638,5.859-25.141,16.3a41.873,41.873,0,0,0-11.121,23.417,2.9,2.9,0,0,0,1.128,3.006,8.145,8.145,0,0,0,4.03,1.424l35.778,4.43q4.51,0.319,6.447-4.114a16.808,16.808,0,0,1,8.541-8.86q6.287-3.159,15.956-3.164,12.57,0,19.178,5.854t6.608,16.3v6.646a1.694,1.694,0,0,1-1.934,1.9H755.129q-32.236,0-49.639,13.449t-17.406,37.814q0,23.423,15.15,35.442T743.2,244.005q29.327,0,44.158-16.138a1.92,1.92,0,0,1,1.612-.791c0.428,0.109.645,0.583,0.645,1.424v7.594q0,5.385,5.479,5.38h34.489q5.478,0,5.48-5.38V130.4a45,45,0,0,0-9.186-27.531q-9.187-12.341-25.625-19.461t-37.39-7.12h0Zm-6.447,134.487q-10.32,0-16.6-4.905t-6.285-13.448a17.06,17.06,0,0,1,8.38-15.189q8.379-5.378,22.885-5.38h22.886a1.694,1.694,0,0,1,1.934,1.9v11.075q0,11.393-9.67,18.67t-23.53,7.278h0Z"/>
</svg>
